<svg xmlns="http://www.w3.org/2000/svg" version="1.0" width="512.000000pt" height="512.000000pt" viewBox="0 0 512.000000 512.000000" preserveAspectRatio="xMidYMid meet">

<g transform="translate(0.000000,512.000000) scale(0.100000,-0.100000)" fill="#000000" stroke="none">
<path d="M782 5090 c-13 -16 -29 -30 -36 -30 -7 0 -21 -17 -32 -37 -10 -21 -36 -54 -56 -73 -21 -20 -38 -40 -38 -46 0 -5 -22 -32 -48 -61 -81 -90 -131 -147 -154 -179 -13 -17 -42 -55 -65 -84 -24 -28 -43 -56 -43 -61 0 -5 533 -9 1319 -9 1160 0 1320 -2 1331 -15 8 -10 31 -15 65 -15 76 0 179 -47 270 -123 41 -34 75 -68 75 -74 0 -7 6 -13 14 -13 14 0 48 -47 80 -110 10 -19 24 -46 32 -60 7 -14 14 -33 14 -42 0 -10 4 -18 9 -18 5 0 11 -15 14 -32 3 -18 11 -58 17 -88 24 -110 3 -364 -38 -463 -7 -16 -12 -34 -12 -41 0 -7 -9 -21 -20 -31 -22 -20 -50 -71 -50 -92 0 -7 -7 -13 -15 -13 -8 0 -15 -4 -15 -9 0 -5 -9 -13 -21 -16 -11 -4 -27 -22 -35 -41 -8 -19 -21 -37 -29 -40 -17 -7 -85 -68 -85 -76 0 -4 -83 -91 -185 -194 -102 -103 -185 -191 -185 -196 0 -4 -7 -8 -16 -8 -8 0 -13 -4 -10 -9 6 -10 -31 -61 -44 -61 -10 0 -63 -53 -98 -100 -13 -16 -30 -30 -38 -30 -8 0 -17 -13 -20 -30 -4 -17 -12 -30 -19 -30 -12 0 -106 -100 -113 -121 -2 -5 -9 -9 -15 -9 -13 0 -97 -89 -97 -102 0 -5 -6 -8 -14 -8 -7 0 -21 -11 -30 -25 -21 -31 -21 -75 -1 -75 8 0 15 -4 15 -9 0 -5 28 -37 62 -72 33 -35 78 -83 100 -107 21 -24 38 -40 38 -36 0 4 9 -1 20 -11 11 -10 20 -23 20 -29 0 -12 70 -76 82 -76 5 0 8 -6 8 -12 1 -17 35 -58 48 -58 6 0 21 -15 33 -33 30 -42 62 -77 72 -77 12 0 56 -53 57 -67 0 -7 4 -13 9 -13 11 0 81 -64 81 -74 0 -4 46 -53 103 -110 56 -56 109 -111 118 -122 9 -10 29 -30 45 -44 16 -14 50 -48 75 -75 26 -28 52 -54 58 -60 6 -5 28 -29 47 -52 20 -24 43 -43 50 -43 7 0 16 -11 20 -24 6 -24 73 -86 93 -86 6 0 11 -8 11 -18 0 -11 22 -38 50 -61 27 -23 50 -46 50 -51 0 -12 44 -56 65 -64 9 -3 22 -20 28 -36 6 -17 16 -30 22 -30 5 0 23 -14 38 -30 16 -17 33 -30 38 -30 5 0 9 -6 9 -13 0 -7 17 -28 38 -47 20 -19 48 -50 60 -67 13 -18 29 -33 36 -33 7 0 22 -13 34 -30 13 -16 29 -30 37 -30 8 0 15 -7 15 -16 0 -8 43 -58 95 -110 l95 -94 402 0 402 0 -53 52 c-29 28 -64 66 -78 85 -14 18 -32 33 -39 33 -8 0 -14 4 -14 10 0 12 -58 71 -85 86 -11 6 -22 20 -25 30 -6 22 -81 94 -99 94 -6 0 -11 8 -11 19 0 10 -16 31 -36 46 -19 15 -39 36 -43 46 -4 11 -29 37 -56 57 -29 22 -51 47 -53 60 -2 13 -14 27 -28 32 -13 6 -27 17 -30 25 -4 8 -10 15 -16 15 -10 0 -38 25 -38 33 0 3 -18 25 -40 48 -22 24 -40 49 -40 56 0 7 -4 13 -10 13 -18 0 -100 80 -100 97 0 7 -4 13 -9 13 -11 0 -201 186 -201 198 -1 4 -25 27 -55 51 -30 24 -55 49 -55 55 0 14 -68 80 -92 89 -10 3 -18 16 -18 27 0 12 -9 24 -23 29 -13 5 -32 22 -42 38 -18 28 -62 73 -71 73 -10 0 -53 55 -54 68 0 6 -4 12 -8 12 -10 0 -102 83 -102 91 0 5 -65 80 -91 104 -72 68 -239 241 -239 247 0 5 -11 13 -25 18 -27 10 -32 34 -12 54 6 7 23 27 37 44 14 18 30 32 35 32 6 0 24 17 40 37 17 20 47 54 68 75 20 20 37 42 37 47 0 6 18 22 40 36 23 14 44 34 48 44 7 18 57 81 65 81 12 0 145 138 151 156 4 12 24 34 45 49 22 14 41 35 44 46 3 10 13 22 24 25 21 8 62 54 63 70 0 6 7 18 17 25 9 8 26 37 39 64 12 28 29 57 37 64 9 7 23 36 33 64 9 29 20 56 25 62 5 5 9 16 9 25 0 9 11 38 24 66 14 27 30 81 36 119 6 39 16 102 22 140 15 87 15 398 1 485 -6 36 -16 97 -22 135 -6 39 -17 84 -25 100 -7 17 -18 41 -24 55 -5 14 -17 41 -26 62 -9 20 -16 43 -16 52 0 9 -6 19 -14 22 -8 3 -17 20 -20 38 -4 18 -15 41 -26 51 -10 9 -22 29 -25 44 -3 14 -21 39 -40 54 -19 15 -35 36 -35 46 0 10 -27 47 -60 82 -33 35 -60 67 -60 72 0 4 -4 7 -10 7 -12 0 -44 25 -80 62 -14 16 -57 44 -95 64 -39 19 -70 41 -70 47 0 7 -10 13 -22 15 -13 2 -23 8 -23 13 0 5 -11 9 -24 9 -14 0 -27 4 -30 9 -4 5 -28 12 -55 16 -62 8 -124 30 -129 44 -3 8 -328 11 -1171 11 l-1167 0 -22 -30z"/>
<path d="M318 4305 c-16 -18 -28 -38 -28 -45 0 -6 -25 -41 -55 -76 -30 -36 -55 -71 -55 -79 0 -7 -3 -15 -8 -17 -13 -5 -92 -104 -92 -114 0 -6 -13 -23 -30 -39 -16 -16 -30 -32 -30 -37 0 -4 399 -8 886 -8 591 0 900 -4 928 -11 98 -25 152 -44 166 -60 8 -9 20 -18 26 -20 17 -6 94 -99 94 -113 0 -7 9 -21 20 -31 11 -10 20 -22 20 -28 0 -5 6 -23 14 -40 24 -53 48 -201 43 -259 -11 -112 -29 -194 -54 -245 -30 -61 -123 -174 -241 -291 -45 -46 -82 -87 -82 -92 0 -5 -22 -28 -50 -52 -27 -24 -50 -48 -50 -54 0 -6 -21 -35 -47 -63 -27 -29 -61 -70 -78 -91 -16 -22 -38 -42 -48 -45 -10 -4 -22 -18 -28 -31 -5 -14 -13 -22 -19 -19 -5 3 -10 -3 -10 -14 0 -12 -6 -21 -14 -21 -7 0 -37 -28 -67 -62 -29 -35 -59 -68 -67 -73 -10 -8 -9 -14 3 -33 9 -12 22 -22 28 -23 7 0 125 -130 262 -289 138 -159 255 -290 260 -290 13 -2 174 -191 202 -238 31 -53 53 -102 53 -121 0 -9 5 -22 10 -27 6 -6 13 -62 17 -126 8 -152 -18 -265 -85 -370 -36 -56 -88 -117 -99 -118 -7 0 -18 -9 -25 -20 -7 -11 -23 -20 -35 -20 -13 0 -23 -4 -23 -10 0 -5 -8 -10 -18 -10 -10 0 -22 -4 -28 -9 -22 -21 -144 -24 -992 -25 -490 -1 -892 -3 -892 -5 0 -2 16 -21 35 -42 19 -22 35 -44 35 -50 0 -7 20 -34 45 -60 25 -26 45 -54 45 -60 0 -7 27 -43 60 -80 33 -37 60 -71 60 -75 0 -4 10 -23 23 -41 l22 -33 813 0 c713 0 813 2 818 15 4 8 17 15 29 15 13 0 26 4 30 9 3 5 19 12 35 16 17 4 30 11 30 16 0 5 5 9 11 9 19 0 159 112 192 152 17 21 35 38 41 38 16 0 107 143 139 215 22 51 53 148 74 230 2 11 7 27 10 35 27 79 15 440 -17 515 -5 11 -11 34 -13 50 -8 50 -56 169 -104 260 -25 47 -93 125 -109 125 -8 0 -21 15 -29 33 -8 19 -38 54 -67 79 -29 25 -60 58 -68 74 -8 16 -36 49 -62 74 -27 25 -48 49 -48 53 0 5 -13 20 -30 34 -20 17 -30 34 -30 53 0 19 -9 36 -26 49 -29 23 -27 50 6 58 11 3 20 11 20 19 0 19 60 85 71 78 5 -3 9 4 9 15 0 10 20 37 45 59 25 22 45 44 45 49 0 4 47 57 106 117 123 127 173 190 208 266 40 88 86 213 86 236 0 11 3 24 7 27 3 4 7 19 9 34 1 16 7 55 13 88 11 68 17 283 7 292 -3 4 -6 26 -6 49 0 24 -5 46 -10 49 -6 4 -10 14 -8 23 2 17 -22 105 -49 177 -42 112 -138 276 -166 283 -7 2 -28 23 -47 48 -19 24 -41 44 -47 44 -7 0 -18 9 -25 20 -7 11 -16 20 -20 20 -5 0 -30 16 -57 35 -26 19 -53 35 -60 35 -6 0 -11 5 -11 10 0 6 -9 10 -19 10 -11 0 -23 5 -26 10 -3 6 -17 10 -31 10 -15 0 -24 6 -24 15 0 13 -97 15 -812 14 l-813 0 -27 -34z"/>
</g>
</svg>